<svg width="194" height="28" viewBox="0 0 194 28" fill="none" xmlns="http://www.w3.org/2000/svg">
<path d="M14.937 27.0527C14.3394 27.0527 13.7373 26.9121 13.1309 26.6309C12.5244 26.3584 11.8696 25.9673 11.1665 25.4575C10.5249 25.0093 9.8877 24.5171 9.25488 23.981C7.76953 22.7505 6.41162 21.8804 5.18115 21.3706C4.46924 21.0718 3.70459 20.9224 2.88721 20.9224H2.58398C2.53125 20.9224 2.42578 20.9312 2.26758 20.9487L6.28857 2.24121C5.07568 2.74219 4.14404 3.48926 3.49365 4.48242C2.84326 5.4668 2.51807 6.67969 2.51807 8.12109C2.51807 8.6748 2.57959 9.12744 2.70264 9.479C2.73779 9.59326 2.78174 9.69434 2.83447 9.78223C2.86963 9.84375 2.88721 9.90527 2.88721 9.9668C1.91162 9.9668 1.19971 9.76904 0.751465 9.37354C0.250488 8.95166 0 8.2749 0 7.34326C0 6.75439 0.127441 6.17432 0.382324 5.60303C0.637207 5.02295 0.997559 4.46484 1.46338 3.92871C1.91162 3.41016 2.43896 2.93115 3.04541 2.4917C3.66064 2.04346 4.31982 1.65674 5.02295 1.33154C6.51709 0.654785 8.00244 0.316406 9.479 0.316406C9.8042 0.316406 10.1646 0.338379 10.5601 0.382324L6.40723 19.7622C6.83789 19.8589 7.27295 20.0039 7.7124 20.1973C8.16064 20.3906 8.67041 20.6411 9.2417 20.9487L10.7183 21.7397C11.8608 22.3638 12.8936 22.7944 13.8164 23.0317C14.3438 23.1724 14.8975 23.2427 15.4775 23.2427C16.2949 23.2427 17.0508 23.0977 17.7451 22.8076C17.5869 24.126 17.2661 25.1587 16.7827 25.9058C16.5454 26.2749 16.2686 26.5562 15.9521 26.7495C15.6445 26.9517 15.3062 27.0527 14.937 27.0527ZM15.9521 23.3745C15.46 23.3745 15.0293 23.3525 14.6602 23.3086C14.291 23.2646 13.9438 23.1592 13.6187 22.9922C12.7661 22.5791 12.3398 21.7529 12.3398 20.5137C12.3398 19.916 12.4321 19.1997 12.6167 18.3647C12.8101 17.5298 13.0825 16.6289 13.4341 15.6621C14.2075 13.5352 15.1655 11.4917 16.3081 9.53174C15.4116 9.58447 14.6997 9.7207 14.1724 9.94043C13.6538 10.1514 13.311 10.481 13.144 10.9292C13.2231 10.9292 13.3022 11.0215 13.3813 11.2061C13.4604 11.3906 13.5 11.5796 13.5 11.7729C13.5 12.0894 13.355 12.3442 13.0649 12.5376C12.7749 12.731 12.4146 12.8276 11.9839 12.8276C11.5005 12.8276 11.105 12.6958 10.7974 12.4321C10.4722 12.1597 10.3096 11.7686 10.3096 11.2588C10.3096 10.8105 10.4458 10.3843 10.7183 9.97998C10.9907 9.56689 11.3774 9.21094 11.8784 8.91211C12.3882 8.60449 12.9771 8.36719 13.645 8.2002C14.3218 8.02441 15.0469 7.93652 15.8203 7.93652C16.1982 7.93652 16.6685 7.96289 17.231 8.01562C18.7427 5.63379 20.2544 3.76611 21.7661 2.4126C23.5239 0.839355 25.1411 0.0527344 26.6177 0.0527344C27.4966 0.0527344 28.2085 0.180176 28.7534 0.435059L24.5215 20.3027H20.6323L22.7021 10.5073C22.0518 10.2085 21.4409 9.98438 20.8696 9.83496C20.3071 9.68555 19.7139 9.58447 19.0898 9.53174C18.0703 11.7378 17.2354 13.9922 16.585 16.2949C15.917 18.6064 15.583 20.4653 15.583 21.8716C15.583 22.5659 15.7061 23.0669 15.9521 23.3745ZM24.5215 1.96436C23.7393 2.38623 22.9175 3.18164 22.0562 4.35059C21.2124 5.51074 20.4126 6.85107 19.6567 8.37158C20.8872 8.60889 21.9858 8.9209 22.9526 9.30762L24.5215 1.96436ZM40.3813 20.7378C39.3618 20.7378 38.4873 20.6147 37.7578 20.3687C37.0283 20.1313 36.4219 19.7534 35.9385 19.2349C35.4463 18.7075 35.0771 18.022 34.8311 17.1782C34.5938 16.3257 34.4751 15.2974 34.4751 14.0933C34.4751 12.731 34.6333 11.3115 34.9497 9.83496C35.3188 8.12109 35.8462 6.5874 36.5317 5.23389C37.3315 3.66064 38.3027 2.43457 39.4453 1.55566C40.7461 0.553711 42.2314 0.0527344 43.9014 0.0527344C45.2461 0.0527344 46.314 0.333984 47.105 0.896484C47.9751 1.51172 48.4102 2.43457 48.4102 3.66504C48.4102 4.43848 48.2695 5.03174 47.9883 5.44482C47.6543 5.91943 47.1621 6.15674 46.5117 6.15674C46.2393 6.15674 45.9712 6.1084 45.7075 6.01172C45.4526 5.91504 45.2109 5.73047 44.9824 5.45801C45.1406 5.37891 45.2944 5.25586 45.4438 5.08887C45.5933 4.91309 45.7251 4.71094 45.8394 4.48242C46.0942 3.97266 46.2217 3.46729 46.2217 2.96631C46.2217 2.48291 46.0986 2.10059 45.8525 1.81934C45.5625 1.48535 45.1362 1.31836 44.5737 1.31836C44.0903 1.31836 43.6113 1.49854 43.1367 1.85889C42.6709 2.21045 42.2227 2.71143 41.792 3.36182C41.3789 3.98584 40.9966 4.71533 40.645 5.55029C40.2935 6.38525 39.9946 7.27295 39.7485 8.21338C39.5024 9.1626 39.3091 10.1294 39.1685 11.1138C39.0278 12.0981 38.9575 13.0386 38.9575 13.9351C38.9575 14.603 39.0059 15.1875 39.1025 15.6885C39.208 16.1895 39.375 16.6157 39.6035 16.9673C40.1045 17.7495 40.9702 18.1406 42.2007 18.1406C43.2554 18.1406 44.2354 17.9077 45.1406 17.4419C46.0459 16.9673 46.8193 16.2993 47.4609 15.438L48.0806 15.7148C47.7378 16.5762 47.2632 17.332 46.6567 17.9824C46.0591 18.624 45.3823 19.1558 44.6265 19.5776C43.9321 19.9644 43.2158 20.2544 42.4775 20.4478C41.7393 20.6411 41.0405 20.7378 40.3813 20.7378ZM53.8286 1.96436C52.6157 2.46533 51.6841 3.2124 51.0337 4.20557C50.3833 5.19873 50.0581 6.41602 50.0581 7.85742C50.0581 8.41992 50.1196 8.86816 50.2427 9.20215C50.2778 9.31641 50.3218 9.41748 50.3745 9.50537C50.4097 9.56689 50.4272 9.62842 50.4272 9.68994C49.4517 9.68994 48.7397 9.49658 48.2915 9.10986C47.7905 8.68799 47.54 8.00684 47.54 7.06641C47.54 6.47754 47.6675 5.89746 47.9224 5.32617C48.1772 4.74609 48.5376 4.18799 49.0034 3.65186C49.4429 3.14209 49.9658 2.66748 50.5723 2.22803C51.1875 1.77979 51.8511 1.39307 52.563 1.06787C54.0571 0.391113 55.5425 0.0527344 57.019 0.0527344C57.4233 0.0527344 57.7837 0.0703125 58.1001 0.105469L53.8022 20.3027H49.9263L53.8286 1.96436ZM66.1685 1.75342C64.7974 2.21045 63.7383 2.95752 62.9912 3.99463C62.2529 5.02295 61.8838 6.30176 61.8838 7.83105C61.8838 8.41113 61.9453 8.86816 62.0684 9.20215C62.0947 9.29883 62.1387 9.39551 62.2002 9.49219C62.2354 9.55371 62.2529 9.61963 62.2529 9.68994C61.3389 9.68994 60.6401 9.50537 60.1567 9.13623C59.6294 8.73193 59.3657 8.09912 59.3657 7.23779C59.3657 6.67529 59.48 6.104 59.7085 5.52393C59.937 4.94385 60.2622 4.38135 60.6841 3.83643C61.0972 3.30908 61.5762 2.81689 62.1211 2.35986C62.6748 1.89404 63.2725 1.48975 63.9141 1.14697C64.5557 0.79541 65.2192 0.527344 65.9048 0.342773C66.5991 0.149414 67.2847 0.0527344 67.9614 0.0527344C68.6294 0.0527344 69.3105 0.180176 70.0049 0.435059L69.3853 14.6602L75.3311 0.435059H79.2202L76.3857 20.3027H72.4966L74.2236 8.17383L69.1479 20.3027H65.4434L65.9839 8.12109L61.4751 20.3027H59.313L66.1685 1.75342ZM84.6387 23.3745C84.1465 23.3745 83.7158 23.3525 83.3467 23.3086C82.9775 23.2646 82.6304 23.1592 82.3052 22.9922C81.4526 22.5791 81.0264 21.7529 81.0264 20.5137C81.0264 19.916 81.1187 19.1997 81.3032 18.3647C81.4966 17.5298 81.769 16.6289 82.1206 15.6621C82.894 13.5352 83.8521 11.4917 84.9946 9.53174C84.0981 9.58447 83.3862 9.7207 82.8589 9.94043C82.3403 10.1514 81.9976 10.481 81.8306 10.9292C81.9097 10.9292 81.9888 11.0215 82.0679 11.2061C82.147 11.3906 82.1865 11.5796 82.1865 11.7729C82.1865 12.0894 82.0415 12.3442 81.7515 12.5376C81.4614 12.731 81.1011 12.8276 80.6704 12.8276C80.187 12.8276 79.7915 12.6958 79.4839 12.4321C79.1587 12.1597 78.9961 11.7686 78.9961 11.2588C78.9961 10.8105 79.1323 10.3843 79.4048 9.97998C79.6772 9.56689 80.064 9.21094 80.5649 8.91211C81.0747 8.60449 81.6636 8.36719 82.3315 8.2002C83.0083 8.02441 83.7334 7.93652 84.5068 7.93652C84.8848 7.93652 85.355 7.96289 85.9175 8.01562C87.4292 5.63379 88.9409 3.76611 90.4526 2.4126C92.2104 0.839355 93.8276 0.0527344 95.3042 0.0527344C96.1831 0.0527344 96.895 0.180176 97.4399 0.435059L93.208 20.3027H89.3188L91.3887 10.5073C90.7383 10.2085 90.1274 9.98438 89.5562 9.83496C88.9937 9.68555 88.4004 9.58447 87.7764 9.53174C86.7568 11.7378 85.9219 13.9922 85.2715 16.2949C84.6035 18.6064 84.2695 20.4653 84.2695 21.8716C84.2695 22.5659 84.3926 23.0669 84.6387 23.3745ZM93.208 1.96436C92.4258 2.38623 91.604 3.18164 90.7427 4.35059C89.8989 5.51074 89.0991 6.85107 88.3433 8.37158C89.5737 8.60889 90.6724 8.9209 91.6392 9.30762L93.208 1.96436ZM109.068 20.7378C108.048 20.7378 107.174 20.6147 106.444 20.3687C105.715 20.1313 105.108 19.7534 104.625 19.2349C104.133 18.7075 103.764 18.022 103.518 17.1782C103.28 16.3257 103.162 15.2974 103.162 14.0933C103.162 12.731 103.32 11.3115 103.636 9.83496C104.005 8.12109 104.533 6.5874 105.218 5.23389C106.018 3.66064 106.989 2.43457 108.132 1.55566C109.433 0.553711 110.918 0.0527344 112.588 0.0527344C113.933 0.0527344 115 0.333984 115.792 0.896484C116.662 1.51172 117.097 2.43457 117.097 3.66504C117.097 4.43848 116.956 5.03174 116.675 5.44482C116.341 5.91943 115.849 6.15674 115.198 6.15674C114.926 6.15674 114.658 6.1084 114.394 6.01172C114.139 5.91504 113.897 5.73047 113.669 5.45801C113.827 5.37891 113.981 5.25586 114.13 5.08887C114.28 4.91309 114.412 4.71094 114.526 4.48242C114.781 3.97266 114.908 3.46729 114.908 2.96631C114.908 2.48291 114.785 2.10059 114.539 1.81934C114.249 1.48535 113.823 1.31836 113.26 1.31836C112.777 1.31836 112.298 1.49854 111.823 1.85889C111.357 2.21045 110.909 2.71143 110.479 3.36182C110.065 3.98584 109.683 4.71533 109.332 5.55029C108.98 6.38525 108.681 7.27295 108.435 8.21338C108.189 9.1626 107.996 10.1294 107.855 11.1138C107.714 12.0981 107.644 13.0386 107.644 13.9351C107.644 14.603 107.692 15.1875 107.789 15.6885C107.895 16.1895 108.062 16.6157 108.29 16.9673C108.791 17.7495 109.657 18.1406 110.887 18.1406C111.942 18.1406 112.922 17.9077 113.827 17.4419C114.732 16.9673 115.506 16.2993 116.147 15.438L116.767 15.7148C116.424 16.5762 115.95 17.332 115.343 17.9824C114.746 18.624 114.069 19.1558 113.313 19.5776C112.619 19.9644 111.902 20.2544 111.164 20.4478C110.426 20.6411 109.727 20.7378 109.068 20.7378ZM121.948 23.3745C121.456 23.3745 121.025 23.3525 120.656 23.3086C120.287 23.2646 119.94 23.1592 119.615 22.9922C118.762 22.5791 118.336 21.7529 118.336 20.5137C118.336 19.916 118.428 19.1997 118.613 18.3647C118.806 17.5298 119.079 16.6289 119.43 15.6621C120.204 13.5352 121.162 11.4917 122.304 9.53174C121.408 9.58447 120.696 9.7207 120.168 9.94043C119.65 10.1514 119.307 10.481 119.14 10.9292C119.219 10.9292 119.298 11.0215 119.377 11.2061C119.457 11.3906 119.496 11.5796 119.496 11.7729C119.496 12.0894 119.351 12.3442 119.061 12.5376C118.771 12.731 118.411 12.8276 117.98 12.8276C117.497 12.8276 117.101 12.6958 116.793 12.4321C116.468 12.1597 116.306 11.7686 116.306 11.2588C116.306 10.8105 116.442 10.3843 116.714 9.97998C116.987 9.56689 117.374 9.21094 117.875 8.91211C118.384 8.60449 118.973 8.36719 119.641 8.2002C120.318 8.02441 121.043 7.93652 121.816 7.93652C122.194 7.93652 122.665 7.96289 123.227 8.01562C124.739 5.63379 126.25 3.76611 127.762 2.4126C129.52 0.839355 131.137 0.0527344 132.614 0.0527344C133.493 0.0527344 134.205 0.180176 134.75 0.435059L130.518 20.3027H126.628L128.698 10.5073C128.048 10.2085 127.437 9.98438 126.866 9.83496C126.303 9.68555 125.71 9.58447 125.086 9.53174C124.066 11.7378 123.231 13.9922 122.581 16.2949C121.913 18.6064 121.579 20.4653 121.579 21.8716C121.579 22.5659 121.702 23.0669 121.948 23.3745ZM130.518 1.96436C129.735 2.38623 128.914 3.18164 128.052 4.35059C127.208 5.51074 126.409 6.85107 125.653 8.37158C126.883 8.60889 127.982 8.9209 128.949 9.30762L130.518 1.96436ZM145.876 20.7642C145.094 20.7642 144.527 20.5664 144.176 20.1709C143.903 19.8721 143.767 19.4678 143.767 18.958C143.767 18.5537 143.829 18.0879 143.952 17.5605C144.075 17.0244 144.255 16.3345 144.492 15.4907C144.729 14.6382 144.905 13.9351 145.02 13.3813C145.143 12.8276 145.204 12.3179 145.204 11.8521C145.204 11.2808 145.085 10.8369 144.848 10.5205C144.584 10.1865 144.163 10.0195 143.583 10.0195C143.257 10.0195 142.958 10.0547 142.686 10.125L140.524 20.3027H136.648L140.313 3.12451L144.308 2.59717L142.989 8.83301H143.2C143.736 8.83301 144.242 8.69238 144.716 8.41113C145.191 8.12109 145.608 7.73438 145.969 7.25098C146.303 6.79395 146.562 6.28857 146.747 5.73486C146.94 5.18115 147.037 4.64502 147.037 4.12646C147.037 3.73975 146.975 3.375 146.852 3.03223C146.738 2.68945 146.566 2.39062 146.338 2.13574C145.819 1.57324 145.063 1.29199 144.07 1.29199C142.972 1.29199 141.974 1.44141 141.078 1.74023C140.19 2.03027 139.425 2.46094 138.784 3.03223C138.133 3.60352 137.637 4.29785 137.294 5.11523C136.951 5.93262 136.78 6.84668 136.78 7.85742C136.78 8.41992 136.841 8.86816 136.964 9.20215C137 9.31641 137.043 9.41748 137.096 9.50537C137.131 9.56689 137.149 9.62842 137.149 9.68994C136.173 9.68994 135.461 9.49658 135.013 9.10986C134.512 8.68799 134.262 8.00684 134.262 7.06641C134.262 6.47754 134.389 5.89746 134.644 5.32617C134.899 4.74609 135.259 4.18799 135.725 3.65186C136.165 3.14209 136.688 2.66748 137.294 2.22803C137.909 1.77979 138.573 1.39307 139.285 1.06787C140.779 0.391113 142.264 0.0527344 143.741 0.0527344C144.76 0.0527344 145.657 0.171387 146.43 0.408691C147.212 0.637207 147.867 0.962402 148.395 1.38428C148.887 1.77979 149.256 2.23682 149.502 2.75537C149.748 3.26514 149.871 3.80566 149.871 4.37695C149.871 5.23828 149.621 6.07324 149.12 6.88184C148.557 7.77832 147.836 8.48145 146.958 8.99121C147.652 9.20215 148.14 9.54053 148.421 10.0063C148.685 10.4546 148.816 11.0171 148.816 11.6938C148.816 12.1948 148.759 12.731 148.645 13.3022C148.531 13.8647 148.368 14.5327 148.157 15.3062C147.92 16.1675 147.749 16.8267 147.643 17.2837C147.546 17.7319 147.498 18.145 147.498 18.5229C147.498 18.9448 147.59 19.3184 147.775 19.6436C147.968 19.96 148.228 20.1797 148.553 20.3027C147.472 20.6104 146.58 20.7642 145.876 20.7642ZM158.414 2.42578H158.098C156.498 2.42578 155.294 2.79053 154.485 3.52002C153.51 4.39893 153.022 5.85352 153.022 7.88379C153.022 8.44629 153.083 8.89453 153.207 9.22852C153.242 9.34277 153.286 9.44385 153.338 9.53174C153.374 9.59326 153.391 9.65479 153.391 9.71631C152.416 9.71631 151.704 9.52295 151.255 9.13623C150.754 8.71436 150.504 8.0376 150.504 7.10596C150.504 6.17432 150.675 5.29102 151.018 4.45605C151.37 3.6123 151.901 2.87402 152.613 2.24121C153.378 1.55566 154.349 1.02393 155.527 0.645996C156.713 0.268066 158.111 0.0791016 159.719 0.0791016C160.642 0.0791016 161.525 0.131836 162.369 0.237305C162.633 0.263672 162.976 0.312012 163.397 0.382324C164.101 0.51416 164.777 0.602051 165.428 0.645996C165.744 0.681152 166.144 0.69873 166.627 0.69873C167.225 0.69873 167.796 0.645996 168.341 0.540527C168.886 0.435059 169.361 0.298828 169.765 0.131836C169.721 1.30957 169.418 2.17529 168.855 2.729C168.302 3.28271 167.48 3.55957 166.39 3.55957C165.801 3.55957 165.208 3.51123 164.61 3.41455C164.013 3.31787 163.208 3.16846 162.198 2.96631L158.467 20.3027H154.591L158.414 2.42578ZM168.5 20.7905C167.656 20.7905 166.917 20.6631 166.285 20.4082C165.652 20.1621 165.129 19.8105 164.716 19.3535C164.32 18.9229 164.021 18.4219 163.819 17.8506C163.626 17.2793 163.529 16.6729 163.529 16.0312C163.529 15.3193 163.644 14.5942 163.872 13.856C164.101 13.1089 164.43 12.4146 164.861 11.7729C165.3 11.105 165.828 10.5337 166.443 10.0591C167.067 9.58447 167.761 9.24609 168.526 9.04395C167.963 8.63965 167.546 8.15625 167.273 7.59375C167.01 7.03125 166.878 6.43359 166.878 5.80078C166.878 5.10645 167.023 4.4165 167.313 3.73096C167.612 3.03662 168.025 2.4126 168.552 1.85889C169.097 1.27881 169.73 0.826172 170.451 0.500977C171.18 0.166992 171.962 0 172.797 0C173.333 0 173.839 0.074707 174.313 0.224121C174.788 0.364746 175.197 0.575684 175.54 0.856934C175.9 1.14697 176.177 1.50293 176.37 1.9248C176.563 2.34668 176.66 2.83008 176.66 3.375C176.66 3.77051 176.607 4.13965 176.502 4.48242C176.396 4.8252 176.251 5.12402 176.067 5.37891C175.882 5.63379 175.667 5.83154 175.421 5.97217C175.175 6.11279 174.92 6.18311 174.656 6.18311C174.164 6.18311 173.742 5.94141 173.391 5.45801C173.54 5.40527 173.689 5.2998 173.839 5.1416C173.988 4.97461 174.12 4.77686 174.234 4.54834C174.34 4.32861 174.423 4.09131 174.485 3.83643C174.546 3.58154 174.577 3.33545 174.577 3.09814C174.577 2.58838 174.423 2.19727 174.116 1.9248C173.861 1.70508 173.518 1.59521 173.087 1.59521C172.701 1.59521 172.336 1.70068 171.993 1.91162C171.65 2.12256 171.356 2.4126 171.11 2.78174C170.864 3.14209 170.67 3.55078 170.53 4.00781C170.398 4.46484 170.332 4.93066 170.332 5.40527C170.332 6.25781 170.543 6.9917 170.965 7.60693C171.422 8.29248 172.121 8.7627 173.061 9.01758C172.147 9.21973 171.303 9.68555 170.53 10.415C169.835 11.083 169.277 11.8872 168.855 12.8276C168.442 13.7681 168.236 14.647 168.236 15.4644C168.236 16.2817 168.434 16.9277 168.829 17.4023C169.269 17.9297 169.923 18.1934 170.793 18.1934C171.224 18.1934 171.677 18.1362 172.151 18.022C172.635 17.8989 173.096 17.7231 173.536 17.4946C174.555 16.9761 175.307 16.2905 175.79 15.438L176.41 15.7148C175.698 17.2705 174.612 18.5098 173.153 19.4326C172.45 19.8721 171.703 20.2061 170.912 20.4346C170.121 20.6719 169.317 20.7905 168.5 20.7905ZM190.833 27.0527C190.235 27.0527 189.633 26.9121 189.026 26.6309C188.42 26.3584 187.765 25.9673 187.062 25.4575C186.42 25.0093 185.783 24.5171 185.15 23.981C183.665 22.7505 182.307 21.8804 181.077 21.3706C180.365 21.0718 179.6 20.9224 178.783 20.9224H178.479C178.427 20.9224 178.321 20.9312 178.163 20.9487L182.184 2.24121C180.971 2.74219 180.04 3.48926 179.389 4.48242C178.739 5.4668 178.414 6.67969 178.414 8.12109C178.414 8.6748 178.475 9.12744 178.598 9.479C178.633 9.59326 178.677 9.69434 178.73 9.78223C178.765 9.84375 178.783 9.90527 178.783 9.9668C177.807 9.9668 177.095 9.76904 176.647 9.37354C176.146 8.95166 175.896 8.2749 175.896 7.34326C175.896 6.75439 176.023 6.17432 176.278 5.60303C176.533 5.02295 176.893 4.46484 177.359 3.92871C177.807 3.41016 178.334 2.93115 178.941 2.4917C179.556 2.04346 180.215 1.65674 180.918 1.33154C182.413 0.654785 183.898 0.316406 185.375 0.316406C185.7 0.316406 186.06 0.338379 186.456 0.382324L182.303 19.7622C182.733 19.8589 183.168 20.0039 183.608 20.1973C184.056 20.3906 184.566 20.6411 185.137 20.9487L186.614 21.7397C187.756 22.3638 188.789 22.7944 189.712 23.0317C190.239 23.1724 190.793 23.2427 191.373 23.2427C192.19 23.2427 192.946 23.0977 193.641 22.8076C193.482 24.126 193.162 25.1587 192.678 25.9058C192.441 26.2749 192.164 26.5562 191.848 26.7495C191.54 26.9517 191.202 27.0527 190.833 27.0527Z" fill="#0E031C"/>
</svg>
